PathFileType	4	(X/Y/Z)	4_coords_data.trc
DataRate	CameraRate	NumFrames	NumMarkers	Units	OrigDataRate	OrigDataStartFrame	OrigNumFrames
30.0	30.0	7	21	m	30.0	12	44
Frame#	Time	THUMB_TIP	THUMB_IP	THUMB_MCP	THUMB_CMC	INDEX_TIP	INDEX_DIP	INDEX_PIP	INDEX_MCP	MIDDLE_TIP	MIDDLE_DIP	MIDDLE_PIP	MIDDLE_MCP	RING_TIP	RING_DIP	RING_PIP	RING_MCP	PINKY_TIP	PINKY_DIP	PINKY_PIP	PINKY_MCP	WRIST
X1	Y1	Z1	X2	Y2	Z2	X3	Y3	Z3	X4	Y4	Z4	X5	Y5	Z5	X6	Y6	Z6	X7	Y7	Z7	X8	Y8	Z8	X9	Y9	Z9	X10	Y10	Z10	X11	Y11	Z11	X12	Y12	Z12	X13	Y13	Z13	X14	Y14	Z14	X15	Y15	Z15	X16	Y16	Z16	X17	Y17	Z17	X18	Y18	Z18	X19	Y19	Z19	X20	Y20	Z20	X21	Y21	Z21
10	0.3666666666666651	0.4890719025578637	-0.019530311822618773	-0.16944223335146325	0.49165739926235663	-0.021614301464847663	-0.14670521081195426	0.4764840779353562	-0.028930876176238574	-0.12053159710654027	0.47738285097160615	-0.027240242298812833	-0.07596452446179719	0.4963595674978324	-0.015089712017576695	-0.09999337329399394	0.5139623353962682	-0.015148585054964192	-0.10425237508775548	0.5286724905378896	2.235291104824011e-05	-0.11787088491595754	0.4915157071873487	0.02082867353279505	-0.11819733127610471	0.49947617493029506	-0.016980470889123023	-0.0858543528732707	0.5169231118628596	-0.01232462820719793	-0.08724270462706973	0.5362241344137809	0.006567846846066816	-0.09819507719426224	0.5001665854967253	0.032943265353738815	-0.0976133679547822	0.4993678641643726	-0.0057828313233989626	-0.07289205435974822	0.5172587731133923	-0.00636509856243439	-0.07075281574747638	0.5381016400082013	0.0063955618369105904	-0.07554034379207986	0.5108812307233725	0.03628828192052436	-0.07509825967210387	0.5027627582837148	-0.008256777416265848	-0.05535253509649596	0.5198309058835248	-0.009552119688732708	-0.05533189755157425	0.5355898765791975	0.00430394994201555	-0.0546418279892964	0.5121476991604076	0.031479529513290694	-0.05105914131149791	0.462283081001861	-0.023011742144276925	-0.051989820119430985
11	0.39999999999999825	0.4891213654654297	-0.019343332085665965	-0.16941800114276384	0.4916741055243923	-0.02146079518814792	-0.14668037003921663	0.47647874512517463	-0.02882875004588592	-0.12053396945419875	0.4773990440093393	-0.027173434046288136	-0.07596601034784878	0.49635949878775865	-0.01494077902212576	-0.10003367558880571	0.5139809948459222	-0.015037034213944644	-0.10421382051574007	0.5286784795365591	0.00015845955542515	-0.11781862650015357	0.49151479929613884	0.020952904679753637	-0.11811530302278878	0.4994951478655677	-0.01696853199418269	-0.08580777517597815	0.5169267759953152	-0.012259060634884356	-0.0872074966704704	0.5362203512643384	0.00666106988257964	-0.09812519626977528	0.5001596328057774	0.033031414199481746	-0.09751083004313849	0.4993583872434316	-0.005821065548507809	-0.07284057404088323	0.5172552050068076	-0.00631728284503108	-0.07072925162610422	0.5380875905117466	0.006469187346613281	-0.07549348012732066	0.510852283298158	0.036347637269108724	-0.07500654562413955	0.5027686847520962	-0.008243266144605577	-0.05541488742205802	0.5198351714315568	-0.009558014520607672	-0.055334456535011234	0.5355726009882865	0.004320464096478127	-0.05460427763771075	0.5121320532612372	0.03149251453613189	-0.050984353859391374	0.4622830810018609	-0.023011742144276925	-0.051989820119430985
12	0.43333333333333146	0.48914214426519964	-0.019180129688340597	-0.1694024901856479	0.49166832014280426	-0.02133398480236426	-0.14666531042246705	0.4764549089747455	-0.02874294504614161	-0.12054100318308347	0.4774027988046047	-0.027123151087621533	-0.07597231717595077	0.49637939459203284	-0.01489542034963831	-0.09998857181163062	0.5139921879175241	-0.01495276989576333	-0.10420594330381494	0.5286751710931995	0.00027436898495492024	-0.11779101156165411	0.4915069570508749	0.021061255000297985	-0.1180466063367922	0.49951533845097273	-0.01693281827561144	-0.0857941975933848	0.5169402656901817	-0.012199493400717576	-0.08719689012454868	0.53623116489743	0.006744917665041483	-0.09807714964109204	0.5001652414117967	0.033106936014006494	-0.0974130165992349	0.4993838058517961	-0.00577670612389769	-0.07294583395440235	0.5172654874041681	-0.00628592746135348	-0.07071286317782732	0.5380878112014611	0.006524922901175234	-0.07545553369870384	0.51084290826251	0.03639356675654548	-0.07490761756625824	0.5027744693189307	-0.008235822112961255	-0.055413912842534885	0.5198385725320759	-0.009581041976619797	-0.05533166292130037	0.5355636752485077	0.004309117639645033	-0.05455924503417309	0.5121365527633254	0.03148665486690594	-0.050893886480754436	0.4622830810018609	-0.023011742144276925	-0.051989820119430985
13	0.4666666666666647	0.4891494050225734	-0.019048153233275245	-0.16939488726449503	0.4916453692330005	-0.021235256081003295	-0.14665754476820214	0.476420595952733	-0.028685385408560027	-0.12055157128382255	0.477396554642629	-0.027084781961661197	-0.07598279776197892	0.4964144946165743	-0.014946259379101878	-0.0998452647827951	0.51398945412347	-0.014868957838982122	-0.1042173149658181	0.5286546114349737	0.00037593545213610025	-0.1178017259788604	0.49147524985892777	0.02114344738100027	-0.11800572372914736	0.4995340731427992	-0.01688739397259187	-0.08578082284530159	0.516952047229285	-0.012134296888063001	-0.08720288009715488	0.5362274885063658	0.006835181391177558	-0.09806684840469526	0.5001472787809346	0.03317605633829657	-0.0973424906276702	0.49941018943583715	-0.005744855918687564	-0.07303072015834589	0.5172809389584825	-0.006253139468658686	-0.07071167739640605	0.5380900975069723	0.0065824443469501	-0.07544524767858107	0.5108282155058935	0.03643433964968934	-0.07483289925361175	0.5027074478155382	-0.008237705057609457	-0.05545242614546597	0.5197697334721474	-0.00960307244655978	-0.0553333460654426	0.5355142365409402	0.004261827495349091	-0.054504375789964754	0.5121396443150243	0.03148234720051557	-0.05082263757917216	0.4622830810018609	-0.023011742144276925	-0.051989820119430985
14	0.4999999999999978	0.4891671361355604	-0.018948524662777633	-0.16939230085804874	0.49163088783993125	-0.02116155814540155	-0.14665395416476446	0.4763927545672558	-0.02863923310314509	-0.12056365574580197	0.47738717617512516	-0.027047709794416286	-0.07599496517468946	0.4964157426332304	-0.014916689221312951	-0.09981011687985908	0.5139803304735139	-0.014794454720626127	-0.10422263461101955	0.5286316731519157	0.00046253623442626957	-0.11780837042905634	0.49144120522991763	0.02121047891642791	-0.1179758941802459	0.4995479990135253	-0.016868102032273513	-0.08574789610634437	0.5169535136664545	-0.012078449146969872	-0.0871995451358844	0.5362176033605507	0.006910347652451909	-0.09804989049297286	0.5001252516211586	0.03323356854026005	-0.0972895556906222	0.49938316187226406	-0.005743139658720198	-0.0730218436706605	0.5172555333649942	-0.006203938353878891	-0.07070538046387564	0.538073913640206	0.006622068639140499	-0.07542433864674714	0.5108100003580461	0.036471332054237915	-0.07477523147609227	0.502713591997329	-0.00817914438190559	-0.055453533412360145	0.5197719968575331	-0.009591521577254625	-0.05532698585835505	0.5355144372008787	0.0042747069329199805	-0.05448123297493129	0.5121339316161159	0.03148647521404979	-0.050772449263931485	0.4622830810018609	-0.023011742144276925	-0.05198982011943093
15	0.533333333333331	0.48920233763066723	-0.018904084977417357	-0.16939034994713653	0.49162510953242733	-0.021140066363388388	-0.1466498450373147	0.4763731705504858	-0.028632546114109814	-0.12057186381797619	0.4773775884568239	-0.027031314912222215	-0.07600374513087516	0.4964241762871926	-0.014954657388451031	-0.0997120591955078	0.5139596472689894	-0.014751578584256242	-0.10423599735223094	0.5286150699008746	0.0005030427152312722	-0.11781999343181093	0.4914138309416233	0.021231773624010186	-0.11797371008060542	0.49954104586511416	-0.01682885480725249	-0.08576229945037411	0.5169499713830883	-0.012047704928679903	-0.08720102046163836	0.5362125804243792	0.006945090341851534	-0.0980469953248797	0.500113215070817	0.03325817705870948	-0.09726904320479535	0.49937095000578324	-0.005662978382265371	-0.07298317848177194	0.5172472920553861	-0.006177682280190111	-0.07070909079149623	0.5380699128615125	0.006644810411001845	-0.07541888090875287	0.5108010850648993	0.03648909851150506	-0.0747478128251649	0.5027129432227401	-0.008159227565630145	-0.05548879953095509	0.519770596756059	-0.00957700505291259	-0.055326432866245834	0.5355159478480537	0.004285417531686098	-0.05447251362192285	0.5121296402815018	0.03148980834255777	-0.05074622994887784	0.462283081001861	-0.023011742144276925	-0.051989820119430985
16	0.5666666666666642	0.4892229318022081	-0.01891062725115411	-0.16940013888309152	0.4916019709067112	-0.0211534753936774	-0.1466556932941389	0.4763453000350656	-0.028650632392679842	-0.12058182455843736	0.4773585339612191	-0.027040098100335253	-0.07601424064025664	0.4964195079523771	-0.01502735473577832	-0.09960789578911117	0.5139190712651109	-0.01473447350691337	-0.1042640212652341	0.5285505234242499	0.0005367291630167248	-0.117855224660399	0.4913334839898972	0.021237102867972535	-0.11800555169391719	0.4995264956761073	-0.01679010264194991	-0.08578929137787178	0.5169344235065856	-0.012002986645536229	-0.08722022432030485	0.5361796166498504	0.007003023790177254	-0.0980739636849659	0.5000581850828979	0.03328536778799085	-0.09728118595157348	0.4993729095155093	-0.005618295682678243	-0.07296694994902198	0.5172529063856792	-0.006145488204304939	-0.07072467878614674	0.5380574158320193	0.006700287370952074	-0.07545103209152715	0.5107612803088566	0.03651901511009226	-0.07475440053885846	0.5026604151205016	-0.008143454500384895	-0.05552485133537438	0.5197165953879946	-0.00957532645900705	-0.0553339131859828	0.5354627583219621	0.004284127650921676	-0.05444740112643637	0.5121025917470722	0.03151456263672159	-0.05074747152203429	0.4622830810018609	-0.023011742144276925	-0.051989820119430985
